<?xml version="1.0" encoding="utf-8"?>
<!-- Generator: Adobe Illustrator 23.0.0, SVG Export Plug-In . SVG Version: 6.00 Build 0)  -->
<svg version="1.1" id="Layer_1" xmlns="http://www.w3.org/2000/svg" xmlns:xlink="http://www.w3.org/1999/xlink" x="0px" y="0px"
	 viewBox="0 0 2520 2520" style="enable-background:new 0 0 2520 2520;" xml:space="preserve">
<style type="text/css">
	.st0{fill:#FFFFFF;}
	.st1{fill:#EE3D23;}
	.st2{fill:none;}
	.st3{fill:#479FD7;}
	.st4{fill:none;stroke:#FFFFFF;stroke-width:2;stroke-miterlimit:10;}
</style>
<g>
	<g>
		<path class="st0" d="M760.2,1077.63c24.87,23.04,37.31,53.97,37.31,92.76c0,38.76-12.55,69.6-37.6,92.47s-60.62,34.3-106.73,34.3
			H600.5v91.08c0,5.87-1.3,9.98-3.84,12.35c-2.57,2.39-6.59,3.57-12.08,3.57h-54.33c-5.47,0-9.51-1.18-12.06-3.57
			c-2.57-2.37-3.84-6.48-3.84-12.35v-329.24c0-5.49,1.18-9.51,3.55-12.08c2.39-2.55,6.5-3.84,12.35-3.84h123.48
			C699.82,1043.06,735.3,1054.59,760.2,1077.63z M699,1208.52c10.43-9.69,15.65-21.86,15.65-36.51c0-15.36-5.14-27.8-15.36-37.31
			c-10.25-9.51-25.61-14.27-46.11-14.27H600.5v102.63h52.67C673.3,1223.06,688.59,1218.21,699,1208.52z"/>
		<path class="st0" d="M1018.37,1332.81c2.39,2.57,3.57,6.59,3.57,12.08v43.34c0,5.49-1.18,9.53-3.57,12.08
			c-2.37,2.57-6.5,3.84-12.35,3.84h-155.3c-5.85,0-9.96-1.27-12.35-3.84c-2.37-2.55-3.55-6.59-3.55-12.08v-43.34
			c0-5.49,1.18-9.51,3.55-12.08c2.39-2.55,6.5-3.84,12.35-3.84h34.59v-209.63h-33.47c-5.87,0-9.98-1.27-12.35-3.84
			c-2.39-2.55-3.57-6.59-3.57-12.08v-44.44c0-5.49,1.18-9.51,3.57-12.08c2.37-2.55,6.48-3.84,12.35-3.84h152.55
			c5.85,0,9.96,1.3,12.35,3.84c2.37,2.57,3.55,6.59,3.55,12.08v44.44c0,5.49-1.18,9.53-3.55,12.08c-2.39,2.57-6.5,3.84-12.35,3.84
			h-32.94v209.63h34.57C1011.88,1328.97,1016.01,1330.26,1018.37,1332.81z"/>
		<path class="st0" d="M1668.56,1207.35c2.28,2.43,3.42,6.3,3.42,11.53v76.11c-1.41,23.79-9.37,43.91-23.87,60.35
			c-14.52,16.44-32.37,28.7-53.54,36.73c-21.16,8.05-42.43,12.09-63.77,12.09c-22.4,0-44.44-4.04-66.14-12.09
			c-21.7-8.03-39.61-20.54-53.79-37.52c-14.16-16.96-21.25-38.4-21.25-64.28v-129.11c0-25.88,7.18-47.75,21.53-65.6
			c14.33-17.85,32.27-31.05,53.79-39.63c21.5-8.56,43.46-12.86,65.86-12.86c22.74,0,44.95,4.29,66.65,12.86
			c21.7,8.58,39.53,21.01,53.54,37.26c13.99,16.27,20.99,35.62,20.99,58c0,6.3-0.96,10.31-2.88,12.07s-6.04,2.63-12.34,2.63h-50.91
			c-5.23,0-8.65-1.05-10.23-3.14c-1.58-2.11-2.63-4.63-3.14-7.62c-0.53-2.97-1.15-5.32-1.84-7.07c-3.16-9.1-9.8-16.72-19.95-22.85
			c-10.16-6.11-23.45-9.18-39.89-9.18c-17.15,0-31.05,5.25-41.73,15.76c-10.68,10.49-15.99,24.13-15.99,40.94v105.47
			c0,16.46,5.23,29.41,15.74,38.84c10.49,9.44,24.49,14.18,41.98,14.18c18.19,0,32.46-4.55,42.77-13.65
			c10.31-9.1,15.48-23.28,15.48-42.52h-47.24c-5.59,0-9.52-1.22-11.81-3.67c-2.29-2.46-3.42-6.3-3.42-11.55v-40.94
			c0-5.23,1.13-9.1,3.42-11.53c2.28-2.46,6.21-3.67,11.81-3.67h114.93C1662.34,1203.67,1666.27,1204.89,1668.56,1207.35z"/>
		<path class="st0" d="M2006.64,1394c0,2.93-0.92,5.29-2.72,7.12c-1.85,1.83-4.4,2.75-7.7,2.75h-64.75
			c-6.21,0-11.34-1.27-15.36-3.84c-4.02-2.55-8.04-6.77-12.06-12.62l-59.28-88.36c-2.55-3.28-4.2-6.86-4.93-10.7
			c-0.74-3.84-1.09-9.6-1.09-17.28v-43.9c0-5.49,1.18-9.51,3.57-12.08c2.37-2.57,6.5-3.84,12.35-3.84h10.96
			c13.91,0,26.08-4.31,36.51-12.91c10.43-8.57,15.63-19.11,15.63-31.55c0-13.89-4.76-25.14-14.27-33.74
			c-9.51-8.6-21.59-12.91-36.22-12.91h-72.99v267.79c0,5.87-1.27,9.98-3.84,12.35c-2.55,2.39-6.56,3.57-12.06,3.57h-54.33
			c-5.14,0-8.98-1.18-11.52-3.57c-2.57-2.37-3.84-6.48-3.84-12.35v-328.71c0-5.47,1.09-9.51,3.28-12.06
			c2.19-2.57,6.21-3.84,12.08-3.84h138.29c28.54,0,50.75,2.72,66.68,8.22c15.92,5.49,30.08,14.47,42.54,26.88
			c10.23,9.89,18.11,22.33,23.58,37.33c5.49,15.01,8.24,31.26,8.24,48.83c0,17.93-3.84,34.48-11.52,49.66
			c-7.68,15.18-17.39,27.91-29.09,38.14c-11.7,10.25-23.58,17.37-35.66,21.39l77.37,112.52
			C2005.91,1388.87,2006.64,1391.43,2006.64,1394z"/>
		<g>
			<g>
				<g>
					<path class="st1" d="M1259.11,1236.49l7.66,13.45v-190.96c0-5.87,1.3-9.98,3.84-12.35c2.57-2.39,6.59-3.57,12.08-3.57h54.33
						c5.47,0,9.51,1.18,12.06,3.57c2.57,2.37,3.84,6.48,3.84,12.35v329.24c0,5.49-1.18,9.51-3.55,12.08
						c-2.39,2.55-6.5,3.84-12.35,3.84h-51.58c-6.23,0-10.72-1.3-13.46-3.84c-2.72-2.57-6.48-7.5-11.23-14.83l-83.72-136.06
						c-5.07-8.18,0.81-18.76,10.44-18.76l61.19,0C1252.92,1230.67,1256.87,1232.87,1259.11,1236.49z"/>
				</g>
				<g>
					<path class="st2" d="M1259.11,1236.49l7.66,13.45v-190.96c0-5.87,1.3-9.98,3.84-12.35c2.57-2.39,6.59-3.57,12.08-3.57h54.33
						c5.47,0,9.51,1.18,12.06,3.57c2.57,2.37,3.84,6.48,3.84,12.35v329.24c0,5.49-1.18,9.51-3.55,12.08
						c-2.39,2.55-6.5,3.84-12.35,3.84h-51.58c-6.23,0-10.72-1.3-13.46-3.84c-2.72-2.57-6.48-7.5-11.23-14.83l-83.72-136.06
						c-5.07-8.18,0.81-18.76,10.44-18.76l61.19,0C1252.92,1230.67,1256.87,1232.87,1259.11,1236.49z"/>
				</g>
			</g>
			<g>
				<g>
					<path class="st3" d="M1153.07,1210.72l-7.66-13.45v190.96c0,5.87-1.3,9.98-3.84,12.35c-2.57,2.39-6.59,3.57-12.08,3.57h-54.33
						c-5.47,0-9.51-1.18-12.06-3.57c-2.57-2.37-3.84-6.48-3.84-12.35v-329.24c0-5.49,1.18-9.51,3.55-12.08
						c2.39-2.55,6.5-3.84,12.35-3.84h51.58c6.23,0,10.72,1.3,13.46,3.84c2.72,2.57,6.48,7.5,11.23,14.83l83.72,136.06
						c5.07,8.18-0.81,18.76-10.44,18.76l-61.19,0C1159.26,1216.55,1155.31,1214.34,1153.07,1210.72z"/>
				</g>
				<g>
					<path class="st2" d="M1153.07,1210.72l-7.66-13.45v190.96c0,5.87-1.3,9.98-3.84,12.35c-2.57,2.39-6.59,3.57-12.08,3.57h-54.33
						c-5.47,0-9.51-1.18-12.06-3.57c-2.57-2.37-3.84-6.48-3.84-12.35v-329.24c0-5.49,1.18-9.51,3.55-12.08
						c2.39-2.55,6.5-3.84,12.35-3.84h51.58c6.23,0,10.72,1.3,13.46,3.84c2.72,2.57,6.48,7.5,11.23,14.83l83.72,136.06
						c5.07,8.18-0.81,18.76-10.44,18.76l-61.19,0C1159.26,1216.55,1155.31,1214.34,1153.07,1210.72z"/>
				</g>
			</g>
		</g>
	</g>
	<line class="st4" x1="600.5" y1="1465.7" x2="1927.08" y2="1465.7"/>
</g>
</svg>
