<svg id="Layer_1" data-name="Layer 1" xmlns="http://www.w3.org/2000/svg" viewBox="0 0 1492.29 361.09"><defs><style>.cls-1{fill:#fff;}.cls-2{fill:#ee3d23;}.cls-3{fill:none;}.cls-4{fill:#479fd7;}</style></defs><title>pingr-solo-no-bg</title><path class="cls-1" d="M245.84,34.57q37.32,34.56,37.32,92.75t-37.61,92.47Q208,254.08,138.82,254.08H86.15v91.09c0,5.87-1.3,10-3.84,12.34s-6.59,3.58-12.08,3.58H15.9c-5.47,0-9.51-1.19-12.06-3.58S0,351,0,345.17V15.92Q0,7.69,3.55,3.84C5.94,1.3,10.05,0,15.9,0H139.38Q208.52,0,245.84,34.57Zm-61.2,130.89q15.65-14.53,15.65-36.51,0-23-15.36-37.31T138.82,77.37H86.15V180h52.67Q169,180,184.64,165.46Z" transform="translate(0 0)"/><path class="cls-1" d="M504,289.74c2.39,2.57,3.57,6.59,3.57,12.08v43.35c0,5.49-1.18,9.53-3.57,12.08s-6.5,3.84-12.35,3.84H336.37q-8.78,0-12.35-3.84c-2.37-2.55-3.55-6.59-3.55-12.08V301.82q0-8.24,3.55-12.08c2.39-2.54,6.5-3.84,12.35-3.84H371V76.28H337.49q-8.82,0-12.35-3.84c-2.39-2.55-3.57-6.59-3.57-12.08V15.92c0-5.49,1.18-9.51,3.57-12.08S331.61,0,337.49,0H490c5.85,0,10,1.3,12.35,3.84s3.55,6.59,3.55,12.08V60.36c0,5.49-1.19,9.53-3.55,12.08s-6.5,3.84-12.35,3.84H457.1V285.9h34.57C497.52,285.9,501.65,287.2,504,289.74Z" transform="translate(0 0)"/><path class="cls-1" d="M1154.2,164.28c2.29,2.44,3.42,6.3,3.42,11.53v76.11q-2.11,35.68-23.88,60.35A133.4,133.4,0,0,1,1080.21,349a178.25,178.25,0,0,1-63.77,12.09A188.72,188.72,0,0,1,950.31,349q-32.55-12-53.79-37.52T875.27,247.2V118.09q0-38.82,21.52-65.6a129,129,0,0,1,53.8-39.63A176.41,176.41,0,0,1,1016.44,0a179.91,179.91,0,0,1,66.65,12.86q32.55,12.87,53.54,37.26t21,58c0,6.3-1,10.31-2.88,12.06s-6,2.63-12.35,2.63h-50.91c-5.23,0-8.65-1-10.23-3.14a17.31,17.31,0,0,1-3.13-7.62,39.71,39.71,0,0,0-1.84-7.07q-4.74-13.65-20-22.85T1016.44,73q-25.71,0-41.72,15.76t-16,40.93V235.11q0,24.7,15.74,38.85t42,14.18q27.3,0,42.78-13.65T1074.7,232h-47.24q-8.38,0-11.81-3.68t-3.41-11.55V175.81c0-5.23,1.13-9.09,3.41-11.53s6.22-3.67,11.81-3.67h114.93Q1150.79,160.61,1154.2,164.28Z" transform="translate(0 0)"/><path class="cls-1" d="M1492.29,350.94a9.7,9.7,0,0,1-2.73,7.12c-1.85,1.83-4.4,2.75-7.7,2.75H1417.1c-6.2,0-11.34-1.28-15.36-3.84s-8-6.77-12.06-12.62L1330.4,256a24.94,24.94,0,0,1-4.93-10.69q-1.11-5.76-1.1-17.29V184.12q0-8.25,3.57-12.08c2.37-2.57,6.5-3.85,12.35-3.85h11a55.62,55.62,0,0,0,36.5-12.9q15.65-12.87,15.63-31.55,0-20.83-14.26-33.74t-36.22-12.91h-73v267.8c0,5.87-1.27,10-3.84,12.34s-6.56,3.58-12,3.58h-54.33q-7.71,0-11.52-3.58c-2.57-2.36-3.84-6.47-3.84-12.34V16.18c0-5.47,1.09-9.51,3.28-12.06s6.21-3.84,12.08-3.84H1348q42.81,0,66.68,8.22a111.07,111.07,0,0,1,42.54,26.88q15.33,14.84,23.58,37.34a141,141,0,0,1,8.24,48.83,108.42,108.42,0,0,1-11.53,49.66,124.83,124.83,0,0,1-29.09,38.14q-17.55,15.38-35.66,21.39l77.37,112.52A15.4,15.4,0,0,1,1492.29,350.94Z" transform="translate(0 0)"/><path class="cls-2" d="M744.75,193.43l7.66,13.45v-191c0-5.87,1.3-10,3.84-12.35S762.84,0,768.33,0h54.33c5.47,0,9.51,1.18,12.06,3.57s3.84,6.48,3.84,12.35V345.17q0,8.24-3.55,12.08c-2.39,2.54-6.5,3.84-12.35,3.84H771.08c-6.23,0-10.72-1.3-13.46-3.84s-6.48-7.51-11.23-14.83L662.67,206.36a12.28,12.28,0,0,1,10.44-18.75H734.3A12.29,12.29,0,0,1,744.75,193.43Z" transform="translate(0 0)"/><path class="cls-3" d="M744.75,193.43l7.66,13.45v-191c0-5.87,1.3-10,3.84-12.35S762.84,0,768.33,0h54.33c5.47,0,9.51,1.18,12.06,3.57s3.84,6.48,3.84,12.35V345.17q0,8.24-3.55,12.08c-2.39,2.54-6.5,3.84-12.35,3.84H771.08c-6.23,0-10.72-1.3-13.46-3.84s-6.48-7.51-11.23-14.83L662.67,206.36a12.28,12.28,0,0,1,10.44-18.75H734.3A12.29,12.29,0,0,1,744.75,193.43Z" transform="translate(0 0)"/><path class="cls-4" d="M638.71,167.66l-7.66-13.45v191c0,5.87-1.29,10-3.84,12.34s-6.59,3.58-12.08,3.58H560.8c-5.47,0-9.51-1.19-12.06-3.58s-3.84-6.47-3.84-12.34V15.92q0-8.23,3.55-12.08C550.84,1.3,555,0,560.8,0h51.58c6.23,0,10.72,1.3,13.47,3.84s6.47,7.5,11.23,14.83L720.8,154.72a12.29,12.29,0,0,1-10.44,18.76h-61.2A12.28,12.28,0,0,1,638.71,167.66Z" transform="translate(0 0)"/><path class="cls-3" d="M638.71,167.66l-7.66-13.45v191c0,5.87-1.29,10-3.84,12.34s-6.59,3.58-12.08,3.58H560.8c-5.47,0-9.51-1.19-12.06-3.58s-3.84-6.47-3.84-12.34V15.92q0-8.23,3.55-12.08C550.84,1.3,555,0,560.8,0h51.58c6.23,0,10.72,1.3,13.47,3.84s6.47,7.5,11.23,14.83L720.8,154.72a12.29,12.29,0,0,1-10.44,18.76h-61.2A12.28,12.28,0,0,1,638.71,167.66Z" transform="translate(0 0)"/></svg>